# xmcd CD database file
#
# Track frame offsets:
#	150
#	16490
#	32575
#	52062
#	71045
#	86129
#	99175
#	117896
#	134412
#	148928
#	161329
#	174365
#
# Disc length: 2509 seconds
#
# Revision: 0
# Processed by: cddbd v1.5.2PL0 Copyright (c) Steve Scherf et al.
# Submitted via: CDex 1.51
#
DISCID=a209cb0c
DTITLE=Get up and Dance wkshop 53 - Get up and Dance wkshop 53
DYEAR=2007
DGENRE=Country
TTITLE0=The fastest dance in the world!
TTITLE1=Jailhouse Creole
TTITLE2=Beer in Mexico
TTITLE3=GB Cha Cha
TTITLE4=One More Midnight
TTITLE5=Southem DJ
TTITLE6=Ride the donkey
TTITLE7=I Love my Chick
TTITLE8=Say Hey
TTITLE9=Hello Honky Tonk
TTITLE10=The Gravy
TTITLE11=Jumping
EXTD=YEAR: 2007
EXTT0=
EXTT1=
EXTT2=
EXTT3=
EXTT4=
EXTT5=
EXTT6=
EXTT7=
EXTT8=
EXTT9=
EXTT10=
EXTT11=
PLAYORDER=
